<?xml version="1.0" standalone="no"?>
<!DOCTYPE svg PUBLIC "-//W3C//DTD SVG 20010904//EN"
 "http://www.w3.org/TR/2001/REC-SVG-20010904/DTD/svg10.dtd">
<svg version="1.0" xmlns="http://www.w3.org/2000/svg"
 width="80.000000pt" height="80.000000pt" viewBox="0 0 80.000000 80.000000"
 preserveAspectRatio="xMidYMid meet">

<g transform="translate(0.000000,80.000000) scale(0.100000,-0.100000)"
fill="#000000" stroke="none">
<path d="M150 670 l0 -70 260 0 260 0 0 70 0 70 -260 0 -260 0 0 -70z m118 48
c21 -21 13 -30 -18 -23 -27 6 -30 4 -30 -20 0 -25 2 -26 31 -20 26 6 30 4 27
-12 -2 -12 -14 -19 -36 -21 -41 -4 -62 12 -62 46 0 49 57 81 88 50z m162 10
c0 -2 9 -26 19 -54 l20 -51 -59 0 -59 0 20 51 c10 28 19 52 19 54 0 1 9 2 20
2 11 0 20 -1 20 -2z m197 -51 l19 -54 -58 0 c-54 0 -58 2 -52 20 33 104 61
115 91 34z"/>
<path d="M220 366 c0 -224 0 -224 23 -230 60 -16 57 -28 57 224 l0 230 -40 0
-40 0 0 -224z"/>
<path d="M370 350 c0 -223 1 -242 19 -261 l19 -21 21 21 c20 20 21 31 21 261
l0 240 -40 0 -40 0 0 -240z"/>
<path d="M520 360 l0 -230 40 0 40 0 0 230 0 230 -40 0 -40 0 0 -230z"/>
</g>
</svg>
