<?xml version="1.0" standalone="no"?>
<!DOCTYPE svg PUBLIC "-//W3C//DTD SVG 20010904//EN"
 "http://www.w3.org/TR/2001/REC-SVG-20010904/DTD/svg10.dtd">
<svg version="1.0" xmlns="http://www.w3.org/2000/svg"
 width="80.000000pt" height="80.000000pt" viewBox="0 0 80.000000 80.000000"
 preserveAspectRatio="xMidYMid meet">

<g transform="translate(0.000000,80.000000) scale(0.100000,-0.100000)"
fill="#000000" stroke="none">
<path d="M162 727 c-24 -24 -42 -48 -41 -53 1 -5 1 -18 -1 -29 l-1 -20 -9 20
c-13 30 -12 8 2 -38 9 -31 13 -36 19 -21 5 14 9 6 14 -28 5 -33 1 -75 -15
-146 -25 -117 -22 -149 25 -227 40 -65 37 -72 -5 -13 -16 22 -30 36 -30 30 0
-5 21 -32 46 -59 26 -26 41 -40 34 -30 -16 22 -9 22 32 -3 19 -11 66 -30 106
-43 l72 -23 69 22 c38 12 83 30 100 38 35 18 45 20 36 6 -3 -5 0 -7 9 -4 28
11 96 115 96 146 0 7 -9 -6 -19 -29 -22 -48 -61 -103 -73 -103 -4 0 8 20 27
45 33 44 55 99 55 140 0 10 -9 63 -21 117 -18 85 -19 104 -9 150 24 101 22
109 -23 156 -23 23 -46 42 -52 42 -5 0 -4 -4 3 -9 24 -15 -81 -52 -130 -47
-36 4 -38 4 -13 -3 22 -6 8 -9 -55 -9 -63 0 -77 3 -55 9 25 7 23 7 -13 3 -49
-5 -154 32 -130 47 7 5 8 9 3 9 -6 0 -30 -20 -53 -43z m8 -22 c-18 -19 -36
-32 -39 -30 -2 3 11 21 29 40 18 19 36 32 39 30 2 -3 -11 -21 -29 -40z m520
-29 c0 -13 -49 34 -62 59 -6 12 4 6 26 -14 20 -19 36 -39 36 -45z m-280 19
c86 0 113 4 151 21 l47 22 42 -43 c40 -41 42 -45 32 -77 -6 -18 -13 -45 -16
-60 l-6 -28 -249 0 -249 0 -13 52 c-10 43 -14 49 -21 33 -6 -15 -7 -12 -2 10
3 17 24 49 46 71 l40 42 47 -22 c38 -17 65 -21 151 -21z"/>
<path d="M180 641 c-13 -26 -13 -54 2 -69 17 -17 45 -15 52 3 6 18 -5 20 -22
3 -9 -9 -13 -8 -18 5 -11 30 0 52 25 49 20 -2 22 0 11 13 -17 21 -37 19 -50
-4z"/>
<path d="M290 615 c-7 -25 -10 -48 -6 -52 3 -3 6 -1 6 5 0 16 37 15 43 0 2 -7
6 -11 9 -8 7 8 -22 100 -31 100 -5 0 -14 -20 -21 -45z m30 -5 c0 -5 -4 -10
-10 -10 -5 0 -10 5 -10 10 0 6 5 10 10 10 6 0 10 -4 10 -10z"/>
<path d="M391 608 c1 -41 3 -46 8 -24 l6 30 12 -27 c7 -15 17 -27 23 -27 13 0
13 87 0 95 -6 4 -10 -6 -10 -22 l-1 -28 -15 28 c-8 15 -17 27 -19 27 -3 0 -4
-24 -4 -52z"/>
<path d="M501 646 c-7 -8 -11 -30 -9 -48 2 -27 7 -33 27 -33 13 0 27 7 29 15
4 13 3 13 -11 2 -13 -11 -17 -10 -26 7 -15 28 -4 53 21 45 15 -4 19 -2 16 7
-7 20 -33 22 -47 5z"/>
<path d="M573 610 c0 -30 2 -45 4 -32 5 27 33 29 33 2 0 -11 5 -20 10 -20 6 0
10 23 10 50 0 28 -4 50 -10 50 -5 0 -10 -9 -10 -20 0 -27 -28 -25 -33 3 -2 12
-4 -3 -4 -33z"/>
<path d="M250 570 c0 -5 5 -10 11 -10 5 0 7 5 4 10 -3 6 -8 10 -11 10 -2 0 -4
-4 -4 -10z"/>
<path d="M460 570 c0 -5 5 -10 11 -10 5 0 7 5 4 10 -3 6 -8 10 -11 10 -2 0 -4
-4 -4 -10z"/>
<path d="M260 740 c8 -5 20 -10 25 -10 6 0 3 5 -5 10 -8 5 -19 10 -25 10 -5 0
-3 -5 5 -10z"/>
<path d="M540 740 c-8 -5 -10 -10 -5 -10 6 0 17 5 25 10 8 5 11 10 5 10 -5 0
-17 -5 -25 -10z"/>
<path d="M711 644 c0 -11 3 -14 6 -6 3 7 2 16 -1 19 -3 4 -6 -2 -5 -13z"/>
<path d="M691 574 c0 -11 3 -14 6 -6 3 7 2 16 -1 19 -3 4 -6 -2 -5 -13z"/>
<path d="M132 520 c0 -14 2 -19 5 -12 2 6 2 18 0 25 -3 6 -5 1 -5 -13z"/>
<path d="M121 454 c0 -11 3 -14 6 -6 3 7 2 16 -1 19 -3 4 -6 -2 -5 -13z"/>
<path d="M691 454 c0 -11 3 -14 6 -6 3 7 2 16 -1 19 -3 4 -6 -2 -5 -13z"/>
<path d="M111 414 c0 -11 3 -14 6 -6 3 7 2 16 -1 19 -3 4 -6 -2 -5 -13z"/>
<path d="M711 384 c0 -11 3 -14 6 -6 3 7 2 16 -1 19 -3 4 -6 -2 -5 -13z"/>
<path d="M101 374 c0 -11 3 -14 6 -6 3 7 2 16 -1 19 -3 4 -6 -2 -5 -13z"/>
<path d="M723 310 c0 -25 2 -35 4 -22 2 12 2 32 0 45 -2 12 -4 2 -4 -23z"/>
<path d="M234 86 c11 -9 24 -16 30 -16 12 0 7 5 -24 19 -24 11 -24 11 -6 -3z"/>
<path d="M570 85 c-14 -8 -20 -14 -14 -15 5 0 19 7 30 15 24 18 16 19 -16 0z"/>
<path d="M495 60 c-13 -5 -14 -9 -5 -9 8 0 24 4 35 9 13 5 14 9 5 9 -8 0 -24
-4 -35 -9z"/>
<path d="M318 53 c7 -3 16 -2 19 1 4 3 -2 6 -13 5 -11 0 -14 -3 -6 -6z"/>
<path d="M440 40 c-8 -5 -10 -10 -5 -10 6 0 17 5 25 10 8 5 11 10 5 10 -5 0
-17 -5 -25 -10z"/>
<path d="M405 20 c3 -5 8 -10 11 -10 2 0 4 5 4 10 0 6 -5 10 -11 10 -5 0 -7
-4 -4 -10z"/>
</g>
</svg>
